M48
; DRILL file {KiCad 7.0.9} date Tue Nov 28 11:25:21 2023
; FORMAT={-:-/ absolute / metric / decimal}
; #@! TF.CreationDate,2023-11-28T11:25:21-05:00
; #@! TF.GenerationSoftware,Kicad,Pcbnew,7.0.9
; #@! TF.FileFunction,Plated,1,2,PTH
FMAT,2
METRIC
; #@! TA.AperFunction,Plated,PTH,ComponentDrill
T1C0.800
; #@! TA.AperFunction,Plated,PTH,ComponentDrill
T2C0.950
; #@! TA.AperFunction,Plated,PTH,ComponentDrill
T3C1.000
; #@! TA.AperFunction,Plated,PTH,ComponentDrill
T4C1.020
; #@! TA.AperFunction,Plated,PTH,ComponentDrill
T5C1.370
%
G90
G05
T1
X36.83Y-48.26
X36.83Y-53.34
X46.99Y-48.26
X46.99Y-53.34
X55.88Y-24.495
X63.5Y-24.495
T2
X39.41Y-30.48
X41.91Y-30.48
X44.41Y-30.48
T3
X22.86Y-16.875
X22.86Y-101.965
X22.86Y-107.045
X22.86Y-192.135
X30.48Y-38.465
X33.02Y-29.21
X33.02Y-31.75
X33.02Y-34.29
X33.02Y-41.91
X33.02Y-44.45
X33.02Y-46.99
X33.02Y-49.53
X33.02Y-52.07
X33.02Y-54.61
X33.02Y-57.15
X33.02Y-59.69
X33.02Y-62.23
X33.02Y-64.77
X33.02Y-67.31
X33.02Y-75.295
X33.02Y-77.835
X33.02Y-80.375
X33.02Y-82.915
X33.02Y-85.455
X33.02Y-87.995
X33.02Y-132.08
X33.02Y-134.62
X33.02Y-137.16
X33.02Y-139.7
X33.02Y-142.24
X33.02Y-144.78
X33.02Y-147.32
X33.02Y-149.86
X33.02Y-152.4
X33.02Y-154.94
X33.02Y-157.48
X43.18Y-38.465
X62.24Y-112.15
X64.78Y-112.15
X67.32Y-112.15
X69.86Y-112.15
X86.36Y-178.165
X86.36Y-180.705
X88.9Y-178.165
X88.9Y-180.705
X90.17Y-82.55
X90.17Y-85.09
X90.17Y-87.63
X90.17Y-90.17
X91.44Y-178.165
X91.44Y-180.705
X92.71Y-40.64
X92.71Y-43.18
X92.71Y-45.72
X92.71Y-48.26
X92.71Y-50.8
X92.71Y-53.34
X92.71Y-55.88
X92.71Y-58.42
X92.71Y-60.96
X92.71Y-63.5
X92.71Y-66.04
X92.71Y-68.58
X92.71Y-71.12
X92.71Y-73.66
X92.71Y-82.55
X92.71Y-85.09
X92.71Y-87.63
X92.71Y-90.17
X92.71Y-130.81
X92.71Y-133.35
X92.71Y-135.89
X92.71Y-138.43
X92.71Y-140.97
X92.71Y-143.51
X92.71Y-146.05
X92.71Y-148.59
X92.71Y-151.13
X92.71Y-153.67
X92.71Y-156.21
X92.71Y-158.75
X92.71Y-161.29
X92.71Y-163.83
X93.98Y-178.165
X93.98Y-180.705
X96.52Y-183.245
X97.79Y-178.165
X100.33Y-16.875
X100.33Y-101.965
X100.33Y-107.045
X100.33Y-192.135
T4
X56.355Y-39.735
X56.355Y-42.275
X56.355Y-44.815
X56.355Y-47.355
X56.355Y-49.895
X56.355Y-52.435
X56.355Y-54.975
X56.355Y-57.515
X56.355Y-60.055
X56.355Y-62.595
X56.355Y-65.135
X56.355Y-67.675
X56.355Y-70.215
X56.355Y-72.755
X56.355Y-75.295
X56.355Y-77.835
X56.355Y-80.375
X56.355Y-82.915
X56.355Y-85.455
X56.355Y-87.995
X56.355Y-129.905
X56.355Y-132.445
X56.355Y-134.985
X56.355Y-137.525
X56.355Y-140.065
X56.355Y-142.605
X56.355Y-145.145
X56.355Y-147.685
X56.355Y-150.225
X56.355Y-152.765
X56.355Y-155.305
X56.355Y-157.845
X56.355Y-160.385
X56.355Y-162.925
X56.355Y-165.465
X56.355Y-168.005
X56.355Y-170.545
X56.355Y-173.085
X56.355Y-175.625
X56.355Y-178.165
X62.705Y-87.765
X62.705Y-177.935
X65.245Y-87.765
X65.245Y-177.935
X67.785Y-87.765
X67.785Y-177.935
X74.135Y-39.735
X74.135Y-42.275
X74.135Y-44.815
X74.135Y-47.355
X74.135Y-49.895
X74.135Y-52.435
X74.135Y-54.975
X74.135Y-57.515
X74.135Y-60.055
X74.135Y-62.595
X74.135Y-65.135
X74.135Y-67.675
X74.135Y-70.215
X74.135Y-72.755
X74.135Y-75.295
X74.135Y-77.835
X74.135Y-80.375
X74.135Y-82.915
X74.135Y-85.455
X74.135Y-87.995
X74.135Y-129.905
X74.135Y-132.445
X74.135Y-134.985
X74.135Y-137.525
X74.135Y-140.065
X74.135Y-142.605
X74.135Y-145.145
X74.135Y-147.685
X74.135Y-150.225
X74.135Y-152.765
X74.135Y-155.305
X74.135Y-157.845
X74.135Y-160.385
X74.135Y-162.925
X74.135Y-165.465
X74.135Y-168.005
X74.135Y-170.545
X74.135Y-173.085
X74.135Y-175.625
X74.135Y-178.165
T5
X71.11Y-27.642
X73.66Y-27.642
X76.21Y-27.642
T0
M30
