%TF.GenerationSoftware,KiCad,Pcbnew,7.0.9*%
%TF.CreationDate,2023-11-30T12:00:33-05:00*%
%TF.ProjectId,sys_incendios,7379735f-696e-4636-956e-64696f732e6b,1.0*%
%TF.SameCoordinates,Original*%
%TF.FileFunction,Plated,1,2,PTH,Drill*%
%TF.FilePolarity,Positive*%
%FSLAX46Y46*%
G04 Gerber Fmt 4.6, Leading zero omitted, Abs format (unit mm)*
G04 Created by KiCad (PCBNEW 7.0.9) date 2023-11-30 12:00:33*
%MOMM*%
%LPD*%
G01*
G04 APERTURE LIST*
%TA.AperFunction,ComponentDrill*%
%ADD10C,0.800000*%
%TD*%
%TA.AperFunction,ComponentDrill*%
%ADD11C,0.950000*%
%TD*%
%TA.AperFunction,ComponentDrill*%
%ADD12C,1.000000*%
%TD*%
%TA.AperFunction,ComponentDrill*%
%ADD13C,1.020000*%
%TD*%
%TA.AperFunction,ComponentDrill*%
%ADD14C,1.370000*%
%TD*%
G04 APERTURE END LIST*
D10*
%TO.C,R2*%
X36830000Y-48260000D03*
%TO.C,R1*%
X36830000Y-53340000D03*
%TO.C,R2*%
X46990000Y-48260000D03*
%TO.C,R1*%
X46990000Y-53340000D03*
%TO.C,D1*%
X55880000Y-24495000D03*
X63500000Y-24495000D03*
D11*
%TO.C,J4*%
X39410000Y-30480000D03*
X41910000Y-30480000D03*
X44410000Y-30480000D03*
D12*
%TO.C,*%
X22860000Y-16875000D03*
X22860000Y-101965000D03*
X22860000Y-107045000D03*
X22860000Y-192135000D03*
X30480000Y-38465000D03*
%TO.C,J3*%
X33020000Y-29210000D03*
X33020000Y-31750000D03*
X33020000Y-34290000D03*
%TO.C,J5*%
X33020000Y-41910000D03*
X33020000Y-44450000D03*
X33020000Y-46990000D03*
X33020000Y-49530000D03*
X33020000Y-52070000D03*
X33020000Y-54610000D03*
X33020000Y-57150000D03*
X33020000Y-59690000D03*
X33020000Y-62230000D03*
X33020000Y-64770000D03*
X33020000Y-67310000D03*
%TO.C,J1*%
X33020000Y-75295000D03*
X33020000Y-77835000D03*
X33020000Y-80375000D03*
X33020000Y-82915000D03*
X33020000Y-85455000D03*
X33020000Y-87995000D03*
%TO.C,J5*%
X33020000Y-132080000D03*
X33020000Y-134620000D03*
X33020000Y-137160000D03*
X33020000Y-139700000D03*
X33020000Y-142240000D03*
X33020000Y-144780000D03*
X33020000Y-147320000D03*
X33020000Y-149860000D03*
X33020000Y-152400000D03*
X33020000Y-154940000D03*
X33020000Y-157480000D03*
%TO.C,*%
X43180000Y-38465000D03*
%TO.C,U1*%
X62240000Y-112150000D03*
X64780000Y-112150000D03*
X67320000Y-112150000D03*
X69860000Y-112150000D03*
%TO.C,U4*%
X86360000Y-178165000D03*
X86360000Y-180705000D03*
X88900000Y-178165000D03*
X88900000Y-180705000D03*
X90170000Y-82550000D03*
X90170000Y-85090000D03*
X90170000Y-87630000D03*
X90170000Y-90170000D03*
X91440000Y-178165000D03*
X91440000Y-180705000D03*
%TO.C,J2*%
X92710000Y-40640000D03*
X92710000Y-43180000D03*
X92710000Y-45720000D03*
X92710000Y-48260000D03*
X92710000Y-50800000D03*
X92710000Y-53340000D03*
X92710000Y-55880000D03*
X92710000Y-58420000D03*
X92710000Y-60960000D03*
X92710000Y-63500000D03*
X92710000Y-66040000D03*
X92710000Y-68580000D03*
X92710000Y-71120000D03*
X92710000Y-73660000D03*
%TO.C,U4*%
X92710000Y-82550000D03*
X92710000Y-85090000D03*
X92710000Y-87630000D03*
X92710000Y-90170000D03*
%TO.C,J2*%
X92710000Y-130810000D03*
X92710000Y-133350000D03*
X92710000Y-135890000D03*
X92710000Y-138430000D03*
X92710000Y-140970000D03*
X92710000Y-143510000D03*
X92710000Y-146050000D03*
X92710000Y-148590000D03*
X92710000Y-151130000D03*
X92710000Y-153670000D03*
X92710000Y-156210000D03*
X92710000Y-158750000D03*
X92710000Y-161290000D03*
X92710000Y-163830000D03*
%TO.C,U4*%
X93980000Y-178165000D03*
X93980000Y-180705000D03*
%TO.C,*%
X96520000Y-183245000D03*
X97790000Y-178165000D03*
X100330000Y-16875000D03*
X100330000Y-101965000D03*
X100330000Y-107045000D03*
X100330000Y-192135000D03*
D13*
%TO.C,U2*%
X56355000Y-39735000D03*
X56355000Y-42275000D03*
X56355000Y-44815000D03*
X56355000Y-47355000D03*
X56355000Y-49895000D03*
X56355000Y-52435000D03*
X56355000Y-54975000D03*
X56355000Y-57515000D03*
X56355000Y-60055000D03*
X56355000Y-62595000D03*
X56355000Y-65135000D03*
X56355000Y-67675000D03*
X56355000Y-70215000D03*
X56355000Y-72755000D03*
X56355000Y-75295000D03*
X56355000Y-77835000D03*
X56355000Y-80375000D03*
X56355000Y-82915000D03*
X56355000Y-85455000D03*
X56355000Y-87995000D03*
X56355000Y-129905000D03*
X56355000Y-132445000D03*
X56355000Y-134985000D03*
X56355000Y-137525000D03*
X56355000Y-140065000D03*
X56355000Y-142605000D03*
X56355000Y-145145000D03*
X56355000Y-147685000D03*
X56355000Y-150225000D03*
X56355000Y-152765000D03*
X56355000Y-155305000D03*
X56355000Y-157845000D03*
X56355000Y-160385000D03*
X56355000Y-162925000D03*
X56355000Y-165465000D03*
X56355000Y-168005000D03*
X56355000Y-170545000D03*
X56355000Y-173085000D03*
X56355000Y-175625000D03*
X56355000Y-178165000D03*
X62705000Y-87765000D03*
X62705000Y-177935000D03*
X65245000Y-87765000D03*
X65245000Y-177935000D03*
X67785000Y-87765000D03*
X67785000Y-177935000D03*
X74135000Y-39735000D03*
X74135000Y-42275000D03*
X74135000Y-44815000D03*
X74135000Y-47355000D03*
X74135000Y-49895000D03*
X74135000Y-52435000D03*
X74135000Y-54975000D03*
X74135000Y-57515000D03*
X74135000Y-60055000D03*
X74135000Y-62595000D03*
X74135000Y-65135000D03*
X74135000Y-67675000D03*
X74135000Y-70215000D03*
X74135000Y-72755000D03*
X74135000Y-75295000D03*
X74135000Y-77835000D03*
X74135000Y-80375000D03*
X74135000Y-82915000D03*
X74135000Y-85455000D03*
X74135000Y-87995000D03*
X74135000Y-129905000D03*
X74135000Y-132445000D03*
X74135000Y-134985000D03*
X74135000Y-137525000D03*
X74135000Y-140065000D03*
X74135000Y-142605000D03*
X74135000Y-145145000D03*
X74135000Y-147685000D03*
X74135000Y-150225000D03*
X74135000Y-152765000D03*
X74135000Y-155305000D03*
X74135000Y-157845000D03*
X74135000Y-160385000D03*
X74135000Y-162925000D03*
X74135000Y-165465000D03*
X74135000Y-168005000D03*
X74135000Y-170545000D03*
X74135000Y-173085000D03*
X74135000Y-175625000D03*
X74135000Y-178165000D03*
D14*
%TO.C,U1*%
X71110000Y-27642500D03*
X73660000Y-27642500D03*
X76210000Y-27642500D03*
M02*
